<mxfile host="app.diagrams.net" modified="2020-11-29T00:28:35.795Z" agent="5.0 (Windows NT 10.0; Win64; x64) AppleWebKit/537.36 (KHTML, like Gecko) Chrome/86.0.4240.198 Safari/537.36" etag="Qs1lP91R3MjoYP2quQTa" version="13.10.4" type="github">
  <diagram id="LwXeX2Z15EOY_49ck1CV" name="Page-1">
    <mxGraphModel dx="1422" dy="772" grid="1" gridSize="10" guides="1" tooltips="1" connect="1" arrows="1" fold="1" page="1" pageScale="1" pageWidth="850" pageHeight="1100" math="0" shadow="0">
      <root>
        <mxCell id="0" />
        <mxCell id="1" parent="0" />
        <mxCell id="gIMHzduCRqGJ_OykrmuW-1" value="7" style="ellipse;whiteSpace=wrap;html=1;aspect=fixed;fillColor=#d5e8d4;strokeColor=#82b366;" parent="1" vertex="1">
          <mxGeometry x="210" y="30" width="30" height="30" as="geometry" />
        </mxCell>
        <mxCell id="gIMHzduCRqGJ_OykrmuW-50" value="1" style="edgeStyle=orthogonalEdgeStyle;curved=1;rounded=0;orthogonalLoop=1;jettySize=auto;html=1;exitX=1;exitY=0;exitDx=0;exitDy=0;entryX=0;entryY=0.5;entryDx=0;entryDy=0;" parent="1" source="gIMHzduCRqGJ_OykrmuW-3" target="gIMHzduCRqGJ_OykrmuW-1" edge="1">
          <mxGeometry x="-0.0841" y="15" relative="1" as="geometry">
            <Array as="points">
              <mxPoint x="156" y="45" />
            </Array>
            <mxPoint as="offset" />
          </mxGeometry>
        </mxCell>
        <mxCell id="gIMHzduCRqGJ_OykrmuW-51" value="1" style="edgeStyle=orthogonalEdgeStyle;curved=1;rounded=0;orthogonalLoop=1;jettySize=auto;html=1;exitX=0;exitY=1;exitDx=0;exitDy=0;" parent="1" source="gIMHzduCRqGJ_OykrmuW-3" target="gIMHzduCRqGJ_OykrmuW-5" edge="1">
          <mxGeometry x="-0.392" y="-5" relative="1" as="geometry">
            <Array as="points">
              <mxPoint x="115" y="86" />
            </Array>
            <mxPoint as="offset" />
          </mxGeometry>
        </mxCell>
        <mxCell id="gIMHzduCRqGJ_OykrmuW-3" value="1" style="ellipse;whiteSpace=wrap;html=1;aspect=fixed;fillColor=#fff2cc;strokeColor=#d6b656;" parent="1" vertex="1">
          <mxGeometry x="130" y="60" width="30" height="30" as="geometry" />
        </mxCell>
        <mxCell id="gIMHzduCRqGJ_OykrmuW-55" value="2" style="edgeStyle=orthogonalEdgeStyle;curved=1;rounded=0;orthogonalLoop=1;jettySize=auto;html=1;exitX=0;exitY=0.5;exitDx=0;exitDy=0;entryX=1;entryY=0.5;entryDx=0;entryDy=0;" parent="1" source="gIMHzduCRqGJ_OykrmuW-4" target="gIMHzduCRqGJ_OykrmuW-8" edge="1">
          <mxGeometry x="0.1429" y="15" relative="1" as="geometry">
            <mxPoint as="offset" />
          </mxGeometry>
        </mxCell>
        <mxCell id="gIMHzduCRqGJ_OykrmuW-56" value="2" style="edgeStyle=orthogonalEdgeStyle;curved=1;rounded=0;orthogonalLoop=1;jettySize=auto;html=1;exitX=1;exitY=0.5;exitDx=0;exitDy=0;entryX=0.5;entryY=1;entryDx=0;entryDy=0;" parent="1" source="gIMHzduCRqGJ_OykrmuW-4" target="gIMHzduCRqGJ_OykrmuW-7" edge="1">
          <mxGeometry relative="1" as="geometry" />
        </mxCell>
        <mxCell id="gIMHzduCRqGJ_OykrmuW-4" value="2" style="ellipse;whiteSpace=wrap;html=1;aspect=fixed;fillColor=#fff2cc;strokeColor=#d6b656;" parent="1" vertex="1">
          <mxGeometry x="260" y="190" width="30" height="30" as="geometry" />
        </mxCell>
        <mxCell id="gIMHzduCRqGJ_OykrmuW-5" value="6" style="ellipse;whiteSpace=wrap;html=1;aspect=fixed;fillColor=#d5e8d4;strokeColor=#82b366;" parent="1" vertex="1">
          <mxGeometry x="100" y="130" width="30" height="30" as="geometry" />
        </mxCell>
        <mxCell id="gIMHzduCRqGJ_OykrmuW-49" value="2" style="edgeStyle=orthogonalEdgeStyle;curved=1;rounded=0;orthogonalLoop=1;jettySize=auto;html=1;exitX=0;exitY=0;exitDx=0;exitDy=0;entryX=1;entryY=0.5;entryDx=0;entryDy=0;" parent="1" source="gIMHzduCRqGJ_OykrmuW-6" target="gIMHzduCRqGJ_OykrmuW-1" edge="1">
          <mxGeometry x="-0.4744" y="-5" relative="1" as="geometry">
            <Array as="points">
              <mxPoint x="294" y="45" />
            </Array>
            <mxPoint as="offset" />
          </mxGeometry>
        </mxCell>
        <mxCell id="gIMHzduCRqGJ_OykrmuW-6" value="5" style="ellipse;whiteSpace=wrap;html=1;aspect=fixed;" parent="1" vertex="1">
          <mxGeometry x="290" y="60" width="30" height="30" as="geometry" />
        </mxCell>
        <mxCell id="gIMHzduCRqGJ_OykrmuW-48" value="2" style="edgeStyle=orthogonalEdgeStyle;curved=1;rounded=0;orthogonalLoop=1;jettySize=auto;html=1;entryX=1;entryY=1;entryDx=0;entryDy=0;" parent="1" source="gIMHzduCRqGJ_OykrmuW-7" target="gIMHzduCRqGJ_OykrmuW-6" edge="1">
          <mxGeometry x="-0.0595" y="-15" relative="1" as="geometry">
            <Array as="points">
              <mxPoint x="335" y="86" />
            </Array>
            <mxPoint as="offset" />
          </mxGeometry>
        </mxCell>
        <mxCell id="gIMHzduCRqGJ_OykrmuW-7" value="3" style="ellipse;whiteSpace=wrap;html=1;aspect=fixed;" parent="1" vertex="1">
          <mxGeometry x="320" y="130" width="30" height="30" as="geometry" />
        </mxCell>
        <mxCell id="gIMHzduCRqGJ_OykrmuW-54" value="2" style="edgeStyle=orthogonalEdgeStyle;curved=1;rounded=0;orthogonalLoop=1;jettySize=auto;html=1;exitX=0;exitY=0.5;exitDx=0;exitDy=0;entryX=0.5;entryY=1;entryDx=0;entryDy=0;" parent="1" source="gIMHzduCRqGJ_OykrmuW-8" target="gIMHzduCRqGJ_OykrmuW-5" edge="1">
          <mxGeometry relative="1" as="geometry" />
        </mxCell>
        <mxCell id="gIMHzduCRqGJ_OykrmuW-8" value="4" style="ellipse;whiteSpace=wrap;html=1;aspect=fixed;" parent="1" vertex="1">
          <mxGeometry x="160" y="190" width="30" height="30" as="geometry" />
        </mxCell>
        <mxCell id="gIMHzduCRqGJ_OykrmuW-86" value="7" style="ellipse;whiteSpace=wrap;html=1;aspect=fixed;fillColor=#d5e8d4;strokeColor=#82b366;" parent="1" vertex="1">
          <mxGeometry x="610" y="30" width="30" height="30" as="geometry" />
        </mxCell>
        <mxCell id="gIMHzduCRqGJ_OykrmuW-87" value="S" style="edgeStyle=orthogonalEdgeStyle;curved=1;rounded=0;orthogonalLoop=1;jettySize=auto;html=1;exitX=1;exitY=0;exitDx=0;exitDy=0;entryX=0;entryY=0.5;entryDx=0;entryDy=0;" parent="1" source="gIMHzduCRqGJ_OykrmuW-89" target="gIMHzduCRqGJ_OykrmuW-86" edge="1">
          <mxGeometry x="-0.3551" y="5" relative="1" as="geometry">
            <Array as="points">
              <mxPoint x="556" y="45" />
            </Array>
            <mxPoint as="offset" />
          </mxGeometry>
        </mxCell>
        <mxCell id="gIMHzduCRqGJ_OykrmuW-88" value="S" style="edgeStyle=orthogonalEdgeStyle;curved=1;rounded=0;orthogonalLoop=1;jettySize=auto;html=1;exitX=0;exitY=1;exitDx=0;exitDy=0;" parent="1" source="gIMHzduCRqGJ_OykrmuW-89" target="gIMHzduCRqGJ_OykrmuW-93" edge="1">
          <mxGeometry x="0.0595" y="-15" relative="1" as="geometry">
            <Array as="points">
              <mxPoint x="515" y="86" />
            </Array>
            <mxPoint as="offset" />
          </mxGeometry>
        </mxCell>
        <mxCell id="gIMHzduCRqGJ_OykrmuW-89" value="1" style="ellipse;whiteSpace=wrap;html=1;aspect=fixed;fillColor=#fff2cc;strokeColor=#d6b656;" parent="1" vertex="1">
          <mxGeometry x="530" y="60" width="30" height="30" as="geometry" />
        </mxCell>
        <mxCell id="gIMHzduCRqGJ_OykrmuW-90" value="N" style="edgeStyle=orthogonalEdgeStyle;curved=1;rounded=0;orthogonalLoop=1;jettySize=auto;html=1;exitX=0;exitY=0.5;exitDx=0;exitDy=0;entryX=1;entryY=0.5;entryDx=0;entryDy=0;" parent="1" source="gIMHzduCRqGJ_OykrmuW-92" target="gIMHzduCRqGJ_OykrmuW-99" edge="1">
          <mxGeometry x="0.1429" y="15" relative="1" as="geometry">
            <mxPoint as="offset" />
          </mxGeometry>
        </mxCell>
        <mxCell id="gIMHzduCRqGJ_OykrmuW-91" value="N" style="edgeStyle=orthogonalEdgeStyle;curved=1;rounded=0;orthogonalLoop=1;jettySize=auto;html=1;exitX=1;exitY=0.5;exitDx=0;exitDy=0;entryX=0.5;entryY=1;entryDx=0;entryDy=0;" parent="1" source="gIMHzduCRqGJ_OykrmuW-92" target="gIMHzduCRqGJ_OykrmuW-97" edge="1">
          <mxGeometry relative="1" as="geometry">
            <mxPoint as="offset" />
          </mxGeometry>
        </mxCell>
        <mxCell id="gIMHzduCRqGJ_OykrmuW-92" value="2" style="ellipse;whiteSpace=wrap;html=1;aspect=fixed;fillColor=#fff2cc;strokeColor=#d6b656;" parent="1" vertex="1">
          <mxGeometry x="660" y="190" width="30" height="30" as="geometry" />
        </mxCell>
        <mxCell id="gIMHzduCRqGJ_OykrmuW-93" value="6" style="ellipse;whiteSpace=wrap;html=1;aspect=fixed;fillColor=#d5e8d4;strokeColor=#82b366;" parent="1" vertex="1">
          <mxGeometry x="500" y="130" width="30" height="30" as="geometry" />
        </mxCell>
        <mxCell id="gIMHzduCRqGJ_OykrmuW-94" value="N" style="edgeStyle=orthogonalEdgeStyle;curved=1;rounded=0;orthogonalLoop=1;jettySize=auto;html=1;exitX=0;exitY=0;exitDx=0;exitDy=0;entryX=1;entryY=0.5;entryDx=0;entryDy=0;" parent="1" source="gIMHzduCRqGJ_OykrmuW-95" target="gIMHzduCRqGJ_OykrmuW-86" edge="1">
          <mxGeometry x="-0.3551" y="-5" relative="1" as="geometry">
            <Array as="points">
              <mxPoint x="694" y="45" />
            </Array>
            <mxPoint as="offset" />
          </mxGeometry>
        </mxCell>
        <mxCell id="gIMHzduCRqGJ_OykrmuW-95" value="5" style="ellipse;whiteSpace=wrap;html=1;aspect=fixed;" parent="1" vertex="1">
          <mxGeometry x="690" y="60" width="30" height="30" as="geometry" />
        </mxCell>
        <mxCell id="gIMHzduCRqGJ_OykrmuW-96" value="N" style="edgeStyle=orthogonalEdgeStyle;curved=1;rounded=0;orthogonalLoop=1;jettySize=auto;html=1;entryX=1;entryY=1;entryDx=0;entryDy=0;" parent="1" source="gIMHzduCRqGJ_OykrmuW-97" target="gIMHzduCRqGJ_OykrmuW-95" edge="1">
          <mxGeometry x="-0.0595" y="-15" relative="1" as="geometry">
            <Array as="points">
              <mxPoint x="735" y="86" />
            </Array>
            <mxPoint as="offset" />
          </mxGeometry>
        </mxCell>
        <mxCell id="gIMHzduCRqGJ_OykrmuW-97" value="3" style="ellipse;whiteSpace=wrap;html=1;aspect=fixed;" parent="1" vertex="1">
          <mxGeometry x="720" y="130" width="30" height="30" as="geometry" />
        </mxCell>
        <mxCell id="gIMHzduCRqGJ_OykrmuW-98" value="N" style="edgeStyle=orthogonalEdgeStyle;curved=1;rounded=0;orthogonalLoop=1;jettySize=auto;html=1;exitX=0;exitY=0.5;exitDx=0;exitDy=0;entryX=0.5;entryY=1;entryDx=0;entryDy=0;" parent="1" source="gIMHzduCRqGJ_OykrmuW-99" target="gIMHzduCRqGJ_OykrmuW-93" edge="1">
          <mxGeometry relative="1" as="geometry" />
        </mxCell>
        <mxCell id="gIMHzduCRqGJ_OykrmuW-99" value="4" style="ellipse;whiteSpace=wrap;html=1;aspect=fixed;" parent="1" vertex="1">
          <mxGeometry x="560" y="190" width="30" height="30" as="geometry" />
        </mxCell>
        <mxCell id="gIMHzduCRqGJ_OykrmuW-100" value="7" style="ellipse;whiteSpace=wrap;html=1;aspect=fixed;" parent="1" vertex="1">
          <mxGeometry x="210" y="300" width="30" height="30" as="geometry" />
        </mxCell>
        <mxCell id="gIMHzduCRqGJ_OykrmuW-101" value="" style="edgeStyle=orthogonalEdgeStyle;curved=1;rounded=0;orthogonalLoop=1;jettySize=auto;html=1;exitX=1;exitY=0;exitDx=0;exitDy=0;entryX=0;entryY=0.5;entryDx=0;entryDy=0;" parent="1" source="gIMHzduCRqGJ_OykrmuW-103" target="gIMHzduCRqGJ_OykrmuW-100" edge="1">
          <mxGeometry relative="1" as="geometry">
            <Array as="points">
              <mxPoint x="156" y="315" />
            </Array>
          </mxGeometry>
        </mxCell>
        <mxCell id="gIMHzduCRqGJ_OykrmuW-116" style="edgeStyle=orthogonalEdgeStyle;curved=1;rounded=0;orthogonalLoop=1;jettySize=auto;html=1;exitX=0;exitY=1;exitDx=0;exitDy=0;entryX=0.5;entryY=0;entryDx=0;entryDy=0;" parent="1" source="gIMHzduCRqGJ_OykrmuW-103" target="gIMHzduCRqGJ_OykrmuW-107" edge="1">
          <mxGeometry relative="1" as="geometry">
            <Array as="points">
              <mxPoint x="115" y="356" />
            </Array>
          </mxGeometry>
        </mxCell>
        <mxCell id="gIMHzduCRqGJ_OykrmuW-103" value="1" style="ellipse;whiteSpace=wrap;html=1;aspect=fixed;fillColor=#fff2cc;strokeColor=#d6b656;" parent="1" vertex="1">
          <mxGeometry x="130" y="330" width="30" height="30" as="geometry" />
        </mxCell>
        <mxCell id="gIMHzduCRqGJ_OykrmuW-106" value="2" style="ellipse;whiteSpace=wrap;html=1;aspect=fixed;fillColor=#d5e8d4;strokeColor=#82b366;" parent="1" vertex="1">
          <mxGeometry x="260" y="460" width="30" height="30" as="geometry" />
        </mxCell>
        <mxCell id="gIMHzduCRqGJ_OykrmuW-118" style="edgeStyle=orthogonalEdgeStyle;curved=1;rounded=0;orthogonalLoop=1;jettySize=auto;html=1;exitX=0.5;exitY=1;exitDx=0;exitDy=0;entryX=0;entryY=0.5;entryDx=0;entryDy=0;" parent="1" source="gIMHzduCRqGJ_OykrmuW-107" target="gIMHzduCRqGJ_OykrmuW-113" edge="1">
          <mxGeometry relative="1" as="geometry" />
        </mxCell>
        <mxCell id="gIMHzduCRqGJ_OykrmuW-107" value="6" style="ellipse;whiteSpace=wrap;html=1;aspect=fixed;" parent="1" vertex="1">
          <mxGeometry x="100" y="400" width="30" height="30" as="geometry" />
        </mxCell>
        <mxCell id="gIMHzduCRqGJ_OykrmuW-108" value="" style="edgeStyle=orthogonalEdgeStyle;curved=1;rounded=0;orthogonalLoop=1;jettySize=auto;html=1;exitX=1;exitY=0.5;exitDx=0;exitDy=0;entryX=0;entryY=0;entryDx=0;entryDy=0;" parent="1" source="gIMHzduCRqGJ_OykrmuW-100" target="gIMHzduCRqGJ_OykrmuW-109" edge="1">
          <mxGeometry relative="1" as="geometry">
            <Array as="points">
              <mxPoint x="294" y="315" />
            </Array>
          </mxGeometry>
        </mxCell>
        <mxCell id="gIMHzduCRqGJ_OykrmuW-121" style="edgeStyle=orthogonalEdgeStyle;curved=1;rounded=0;orthogonalLoop=1;jettySize=auto;html=1;exitX=1;exitY=1;exitDx=0;exitDy=0;entryX=0.5;entryY=0;entryDx=0;entryDy=0;" parent="1" source="gIMHzduCRqGJ_OykrmuW-109" target="gIMHzduCRqGJ_OykrmuW-111" edge="1">
          <mxGeometry relative="1" as="geometry">
            <Array as="points">
              <mxPoint x="335" y="356" />
            </Array>
          </mxGeometry>
        </mxCell>
        <mxCell id="gIMHzduCRqGJ_OykrmuW-109" value="5" style="ellipse;whiteSpace=wrap;html=1;aspect=fixed;" parent="1" vertex="1">
          <mxGeometry x="290" y="330" width="30" height="30" as="geometry" />
        </mxCell>
        <mxCell id="gIMHzduCRqGJ_OykrmuW-120" style="edgeStyle=orthogonalEdgeStyle;curved=1;rounded=0;orthogonalLoop=1;jettySize=auto;html=1;exitX=0.5;exitY=1;exitDx=0;exitDy=0;entryX=1;entryY=0.5;entryDx=0;entryDy=0;" parent="1" source="gIMHzduCRqGJ_OykrmuW-111" target="gIMHzduCRqGJ_OykrmuW-106" edge="1">
          <mxGeometry relative="1" as="geometry" />
        </mxCell>
        <mxCell id="gIMHzduCRqGJ_OykrmuW-111" value="3" style="ellipse;whiteSpace=wrap;html=1;aspect=fixed;" parent="1" vertex="1">
          <mxGeometry x="320" y="400" width="30" height="30" as="geometry" />
        </mxCell>
        <mxCell id="gIMHzduCRqGJ_OykrmuW-119" style="edgeStyle=orthogonalEdgeStyle;curved=1;rounded=0;orthogonalLoop=1;jettySize=auto;html=1;exitX=1;exitY=0.5;exitDx=0;exitDy=0;entryX=0;entryY=0.5;entryDx=0;entryDy=0;" parent="1" source="gIMHzduCRqGJ_OykrmuW-113" target="gIMHzduCRqGJ_OykrmuW-106" edge="1">
          <mxGeometry relative="1" as="geometry" />
        </mxCell>
        <mxCell id="gIMHzduCRqGJ_OykrmuW-113" value="4" style="ellipse;whiteSpace=wrap;html=1;aspect=fixed;" parent="1" vertex="1">
          <mxGeometry x="160" y="460" width="30" height="30" as="geometry" />
        </mxCell>
        <mxCell id="gIMHzduCRqGJ_OykrmuW-122" value="7" style="ellipse;whiteSpace=wrap;html=1;aspect=fixed;" parent="1" vertex="1">
          <mxGeometry x="610" y="310" width="30" height="30" as="geometry" />
        </mxCell>
        <mxCell id="gIMHzduCRqGJ_OykrmuW-123" value="1" style="edgeStyle=orthogonalEdgeStyle;curved=1;rounded=0;orthogonalLoop=1;jettySize=auto;html=1;exitX=1;exitY=0;exitDx=0;exitDy=0;entryX=0;entryY=0.5;entryDx=0;entryDy=0;" parent="1" source="gIMHzduCRqGJ_OykrmuW-125" target="gIMHzduCRqGJ_OykrmuW-122" edge="1">
          <mxGeometry x="-0.0841" y="15" relative="1" as="geometry">
            <Array as="points">
              <mxPoint x="556" y="325" />
            </Array>
            <mxPoint as="offset" />
          </mxGeometry>
        </mxCell>
        <mxCell id="gIMHzduCRqGJ_OykrmuW-124" value="1" style="edgeStyle=orthogonalEdgeStyle;curved=1;rounded=0;orthogonalLoop=1;jettySize=auto;html=1;exitX=0;exitY=1;exitDx=0;exitDy=0;entryX=0.5;entryY=0;entryDx=0;entryDy=0;" parent="1" source="gIMHzduCRqGJ_OykrmuW-125" target="gIMHzduCRqGJ_OykrmuW-128" edge="1">
          <mxGeometry x="-0.392" y="-5" relative="1" as="geometry">
            <Array as="points">
              <mxPoint x="515" y="366" />
            </Array>
            <mxPoint as="offset" />
          </mxGeometry>
        </mxCell>
        <mxCell id="gIMHzduCRqGJ_OykrmuW-125" value="1" style="ellipse;whiteSpace=wrap;html=1;aspect=fixed;fillColor=#fff2cc;strokeColor=#d6b656;" parent="1" vertex="1">
          <mxGeometry x="530" y="340" width="30" height="30" as="geometry" />
        </mxCell>
        <mxCell id="gIMHzduCRqGJ_OykrmuW-126" value="2" style="ellipse;whiteSpace=wrap;html=1;aspect=fixed;fillColor=#d5e8d4;strokeColor=#82b366;" parent="1" vertex="1">
          <mxGeometry x="660" y="470" width="30" height="30" as="geometry" />
        </mxCell>
        <mxCell id="gIMHzduCRqGJ_OykrmuW-127" value="1" style="edgeStyle=orthogonalEdgeStyle;curved=1;rounded=0;orthogonalLoop=1;jettySize=auto;html=1;exitX=0.5;exitY=1;exitDx=0;exitDy=0;entryX=0;entryY=0.5;entryDx=0;entryDy=0;" parent="1" source="gIMHzduCRqGJ_OykrmuW-128" target="gIMHzduCRqGJ_OykrmuW-135" edge="1">
          <mxGeometry relative="1" as="geometry" />
        </mxCell>
        <mxCell id="gIMHzduCRqGJ_OykrmuW-128" value="6" style="ellipse;whiteSpace=wrap;html=1;aspect=fixed;" parent="1" vertex="1">
          <mxGeometry x="500" y="410" width="30" height="30" as="geometry" />
        </mxCell>
        <mxCell id="gIMHzduCRqGJ_OykrmuW-129" value="1" style="edgeStyle=orthogonalEdgeStyle;curved=1;rounded=0;orthogonalLoop=1;jettySize=auto;html=1;exitX=1;exitY=0.5;exitDx=0;exitDy=0;entryX=0;entryY=0;entryDx=0;entryDy=0;" parent="1" source="gIMHzduCRqGJ_OykrmuW-122" target="gIMHzduCRqGJ_OykrmuW-131" edge="1">
          <mxGeometry x="0.0841" y="15" relative="1" as="geometry">
            <Array as="points">
              <mxPoint x="694" y="325" />
            </Array>
            <mxPoint as="offset" />
          </mxGeometry>
        </mxCell>
        <mxCell id="gIMHzduCRqGJ_OykrmuW-130" value="1" style="edgeStyle=orthogonalEdgeStyle;curved=1;rounded=0;orthogonalLoop=1;jettySize=auto;html=1;exitX=1;exitY=1;exitDx=0;exitDy=0;entryX=0.5;entryY=0;entryDx=0;entryDy=0;" parent="1" source="gIMHzduCRqGJ_OykrmuW-131" target="gIMHzduCRqGJ_OykrmuW-133" edge="1">
          <mxGeometry x="-0.392" y="5" relative="1" as="geometry">
            <Array as="points">
              <mxPoint x="735" y="366" />
            </Array>
            <mxPoint as="offset" />
          </mxGeometry>
        </mxCell>
        <mxCell id="gIMHzduCRqGJ_OykrmuW-131" value="5" style="ellipse;whiteSpace=wrap;html=1;aspect=fixed;" parent="1" vertex="1">
          <mxGeometry x="690" y="340" width="30" height="30" as="geometry" />
        </mxCell>
        <mxCell id="gIMHzduCRqGJ_OykrmuW-132" value="1" style="edgeStyle=orthogonalEdgeStyle;curved=1;rounded=0;orthogonalLoop=1;jettySize=auto;html=1;exitX=0.5;exitY=1;exitDx=0;exitDy=0;entryX=1;entryY=0.5;entryDx=0;entryDy=0;" parent="1" source="gIMHzduCRqGJ_OykrmuW-133" target="gIMHzduCRqGJ_OykrmuW-126" edge="1">
          <mxGeometry relative="1" as="geometry">
            <mxPoint as="offset" />
          </mxGeometry>
        </mxCell>
        <mxCell id="gIMHzduCRqGJ_OykrmuW-133" value="3" style="ellipse;whiteSpace=wrap;html=1;aspect=fixed;" parent="1" vertex="1">
          <mxGeometry x="720" y="410" width="30" height="30" as="geometry" />
        </mxCell>
        <mxCell id="gIMHzduCRqGJ_OykrmuW-134" value="1" style="edgeStyle=orthogonalEdgeStyle;curved=1;rounded=0;orthogonalLoop=1;jettySize=auto;html=1;exitX=1;exitY=0.5;exitDx=0;exitDy=0;entryX=0;entryY=0.5;entryDx=0;entryDy=0;" parent="1" source="gIMHzduCRqGJ_OykrmuW-135" target="gIMHzduCRqGJ_OykrmuW-126" edge="1">
          <mxGeometry x="-0.1429" y="-15" relative="1" as="geometry">
            <mxPoint as="offset" />
          </mxGeometry>
        </mxCell>
        <mxCell id="gIMHzduCRqGJ_OykrmuW-135" value="4" style="ellipse;whiteSpace=wrap;html=1;aspect=fixed;" parent="1" vertex="1">
          <mxGeometry x="560" y="470" width="30" height="30" as="geometry" />
        </mxCell>
        <mxCell id="gIMHzduCRqGJ_OykrmuW-153" value="7" style="ellipse;whiteSpace=wrap;html=1;aspect=fixed;" parent="1" vertex="1">
          <mxGeometry x="410" y="520" width="30" height="30" as="geometry" />
        </mxCell>
        <mxCell id="gIMHzduCRqGJ_OykrmuW-154" value="S" style="edgeStyle=orthogonalEdgeStyle;curved=1;rounded=0;orthogonalLoop=1;jettySize=auto;html=1;exitX=1;exitY=0;exitDx=0;exitDy=0;entryX=0;entryY=0.5;entryDx=0;entryDy=0;" parent="1" source="gIMHzduCRqGJ_OykrmuW-156" target="gIMHzduCRqGJ_OykrmuW-153" edge="1">
          <mxGeometry x="-0.0841" y="15" relative="1" as="geometry">
            <Array as="points">
              <mxPoint x="356" y="535" />
            </Array>
            <mxPoint as="offset" />
          </mxGeometry>
        </mxCell>
        <mxCell id="gIMHzduCRqGJ_OykrmuW-155" value="S" style="edgeStyle=orthogonalEdgeStyle;curved=1;rounded=0;orthogonalLoop=1;jettySize=auto;html=1;exitX=0;exitY=1;exitDx=0;exitDy=0;entryX=0.5;entryY=0;entryDx=0;entryDy=0;" parent="1" source="gIMHzduCRqGJ_OykrmuW-156" target="gIMHzduCRqGJ_OykrmuW-159" edge="1">
          <mxGeometry x="-0.392" y="-5" relative="1" as="geometry">
            <Array as="points">
              <mxPoint x="315" y="576" />
            </Array>
            <mxPoint as="offset" />
          </mxGeometry>
        </mxCell>
        <mxCell id="gIMHzduCRqGJ_OykrmuW-156" value="1" style="ellipse;whiteSpace=wrap;html=1;aspect=fixed;fillColor=#fff2cc;strokeColor=#d6b656;" parent="1" vertex="1">
          <mxGeometry x="330" y="550" width="30" height="30" as="geometry" />
        </mxCell>
        <mxCell id="gIMHzduCRqGJ_OykrmuW-157" value="2" style="ellipse;whiteSpace=wrap;html=1;aspect=fixed;fillColor=#d5e8d4;strokeColor=#82b366;" parent="1" vertex="1">
          <mxGeometry x="460" y="680" width="30" height="30" as="geometry" />
        </mxCell>
        <mxCell id="gIMHzduCRqGJ_OykrmuW-158" value="S" style="edgeStyle=orthogonalEdgeStyle;curved=1;rounded=0;orthogonalLoop=1;jettySize=auto;html=1;exitX=0.5;exitY=1;exitDx=0;exitDy=0;entryX=0;entryY=0.5;entryDx=0;entryDy=0;" parent="1" source="gIMHzduCRqGJ_OykrmuW-159" target="gIMHzduCRqGJ_OykrmuW-166" edge="1">
          <mxGeometry relative="1" as="geometry" />
        </mxCell>
        <mxCell id="gIMHzduCRqGJ_OykrmuW-159" value="6" style="ellipse;whiteSpace=wrap;html=1;aspect=fixed;" parent="1" vertex="1">
          <mxGeometry x="300" y="620" width="30" height="30" as="geometry" />
        </mxCell>
        <mxCell id="gIMHzduCRqGJ_OykrmuW-160" value="S" style="edgeStyle=orthogonalEdgeStyle;curved=1;rounded=0;orthogonalLoop=1;jettySize=auto;html=1;exitX=1;exitY=0.5;exitDx=0;exitDy=0;entryX=0;entryY=0;entryDx=0;entryDy=0;" parent="1" source="gIMHzduCRqGJ_OykrmuW-153" target="gIMHzduCRqGJ_OykrmuW-162" edge="1">
          <mxGeometry x="0.0841" y="15" relative="1" as="geometry">
            <Array as="points">
              <mxPoint x="494" y="535" />
            </Array>
            <mxPoint as="offset" />
          </mxGeometry>
        </mxCell>
        <mxCell id="gIMHzduCRqGJ_OykrmuW-161" value="S" style="edgeStyle=orthogonalEdgeStyle;curved=1;rounded=0;orthogonalLoop=1;jettySize=auto;html=1;exitX=1;exitY=1;exitDx=0;exitDy=0;entryX=0.5;entryY=0;entryDx=0;entryDy=0;" parent="1" source="gIMHzduCRqGJ_OykrmuW-162" target="gIMHzduCRqGJ_OykrmuW-164" edge="1">
          <mxGeometry x="-0.392" y="5" relative="1" as="geometry">
            <Array as="points">
              <mxPoint x="535" y="576" />
            </Array>
            <mxPoint as="offset" />
          </mxGeometry>
        </mxCell>
        <mxCell id="gIMHzduCRqGJ_OykrmuW-162" value="5" style="ellipse;whiteSpace=wrap;html=1;aspect=fixed;" parent="1" vertex="1">
          <mxGeometry x="490" y="550" width="30" height="30" as="geometry" />
        </mxCell>
        <mxCell id="gIMHzduCRqGJ_OykrmuW-163" value="S" style="edgeStyle=orthogonalEdgeStyle;curved=1;rounded=0;orthogonalLoop=1;jettySize=auto;html=1;exitX=0.5;exitY=1;exitDx=0;exitDy=0;entryX=1;entryY=0.5;entryDx=0;entryDy=0;" parent="1" source="gIMHzduCRqGJ_OykrmuW-164" target="gIMHzduCRqGJ_OykrmuW-157" edge="1">
          <mxGeometry relative="1" as="geometry">
            <mxPoint as="offset" />
          </mxGeometry>
        </mxCell>
        <mxCell id="gIMHzduCRqGJ_OykrmuW-164" value="3" style="ellipse;whiteSpace=wrap;html=1;aspect=fixed;" parent="1" vertex="1">
          <mxGeometry x="520" y="620" width="30" height="30" as="geometry" />
        </mxCell>
        <mxCell id="gIMHzduCRqGJ_OykrmuW-165" value="S" style="edgeStyle=orthogonalEdgeStyle;curved=1;rounded=0;orthogonalLoop=1;jettySize=auto;html=1;exitX=1;exitY=0.5;exitDx=0;exitDy=0;entryX=0;entryY=0.5;entryDx=0;entryDy=0;" parent="1" source="gIMHzduCRqGJ_OykrmuW-166" target="gIMHzduCRqGJ_OykrmuW-157" edge="1">
          <mxGeometry x="-0.1429" y="-15" relative="1" as="geometry">
            <Array as="points">
              <mxPoint x="420" y="695" />
              <mxPoint x="420" y="695" />
            </Array>
            <mxPoint as="offset" />
          </mxGeometry>
        </mxCell>
        <mxCell id="gIMHzduCRqGJ_OykrmuW-166" value="4" style="ellipse;whiteSpace=wrap;html=1;aspect=fixed;" parent="1" vertex="1">
          <mxGeometry x="360" y="680" width="30" height="30" as="geometry" />
        </mxCell>
      </root>
    </mxGraphModel>
  </diagram>
</mxfile>
